<svg width="173" height="74" viewBox="0 0 173 74" fill="none" xmlns="http://www.w3.org/2000/svg">
<g clip-path="url(#clip0_20_801)">
<path d="M12.5322 65.9356C13.6029 64.784 14.8615 63.4834 15.613 62.8719C15.4017 62.8537 15.0682 62.8127 14.7061 62.7581C13.9227 63.4717 12.9235 64.5142 12.0284 65.4703C10.894 66.6941 9.95912 67.7632 9.95912 67.7684C9.94482 67.7775 9.93962 67.7964 9.92467 67.8094C9.18356 68.0135 7.92562 68.3592 7.08895 68.5874C5.84857 68.9312 4.73561 68.8467 4.73561 69.6578C4.73561 69.6578 3.45168 70.3461 3.75202 71.3723C3.75202 71.3723 6.32769 69.3153 8.53151 68.9669C8.53151 68.9669 7.18517 69.8424 7.30739 71.0292C7.30739 71.0292 9.1218 68.315 11.2405 69.9607C11.2405 69.9607 10.2965 68.6784 10.6898 67.9725C11.0285 67.5884 11.73 66.7994 12.5322 65.9356ZM8.4522 33.8881C8.34103 33.9375 8.22532 33.9557 8.10635 33.9557C7.7306 33.9557 7.37825 33.7282 7.22547 33.3558C7.21182 33.3253 7.19427 33.2889 7.18777 33.2505L6.90823 33.3435C7.14356 34.0285 7.85086 34.4035 8.48926 34.1825C8.64983 34.1247 8.7935 34.0396 8.90467 33.9304C9.25572 33.6002 9.39809 33.0634 9.22321 32.5532L8.58222 32.7722C8.62253 32.8664 8.64983 32.9685 8.64983 33.0777C8.64983 33.1725 8.63358 33.2583 8.59587 33.3402L8.88842 33.5183C8.83771 33.595 8.7753 33.6717 8.70054 33.7354C8.63358 33.7991 8.54777 33.8498 8.4522 33.8881ZM34.4085 31.8096L21.7401 34.8988V34.8851L21.744 34.8988L46.4886 24.1944L26.0958 26.6914L37.0115 18.72L25.3143 23.2858L27.0807 19.7417L18.7133 25.7672L18.6424 25.6398L30.5053 0L11.2145 22.8269L11.0942 10.3814L4.01596 27.0164L3.648 22.1126L0.160899 34.8734L0.1674 34.8695V34.8734C0.1674 34.8734 0.637418 34.5257 1.26931 34.3353C1.32002 34.3216 1.37137 34.3086 1.42208 34.2943C1.42858 34.2943 1.43508 34.2891 1.44223 34.2891C1.49359 34.2781 1.5443 34.2657 1.59501 34.2579C1.60151 34.2579 1.60931 34.2521 1.61906 34.2521C1.67107 34.243 1.72112 34.2358 1.77963 34.2326V34.2267C1.83424 34.2222 1.88755 34.2196 1.93891 34.215H1.97206C2.02342 34.2105 2.07868 34.2105 2.13654 34.215C2.13979 34.215 2.14304 34.215 2.15539 34.2196C2.2035 34.2196 2.25095 34.2222 2.30231 34.2326C2.31206 34.2358 2.31856 34.2358 2.32961 34.2358C2.38487 34.243 2.43493 34.2521 2.48629 34.2657C2.49994 34.2657 2.51359 34.2703 2.52009 34.2735C2.5734 34.2872 2.62801 34.3015 2.68652 34.3216C3.87944 34.7532 4.89424 34.3216 4.89424 34.3216C4.89424 34.3216 6.0176 35.0424 6.0176 35.6475H6.015V35.6501C6.015 35.6501 4.53668 35.7365 4.53668 35.082C4.53668 35.082 2.64621 34.4107 0.000976562 35.3908L5.57943 37.789C5.57618 37.763 5.28169 36.7251 5.60414 36.3637C5.7062 36.2389 5.88563 36.1954 6.16517 36.2903C6.26723 36.3267 6.34135 36.3176 6.3875 36.2727C6.82112 35.8256 4.71741 31.9416 4.71741 31.9416C4.71741 31.9416 2.82824 31.7583 1.1939 33.4676C1.08533 33.5807 0.972216 33.7022 0.867551 33.8355V33.8296V33.8355C1.03463 33.5443 1.56445 32.7 2.44858 31.9689C2.97841 31.5243 3.6415 31.1259 4.43137 30.901C4.64785 30.3817 4.37286 30.7197 4.81947 30.4467C4.82272 30.4467 4.82272 30.4422 4.82272 30.4422C5.03271 29.0728 5.80827 25.5456 8.48341 22.5286C8.66283 22.3284 8.84746 22.1263 9.04379 21.9346C9.04379 21.9346 8.35859 23.2234 8.35859 24.1196C8.37809 24.0969 9.05484 23.0817 9.99032 22.1529V22.149C9.99032 22.149 9.97927 22.164 9.96562 22.1893C9.79205 22.5611 8.51656 25.283 8.64983 26.0779C8.65373 26.085 8.65633 26.0896 8.65633 26.0974L11.2346 23.7355C11.2346 23.7355 11.2275 23.7401 11.2236 23.7427C11.1488 23.8447 8.8026 27.0164 8.57117 28.1037V28.1109L12.475 25.3233L12.4711 25.3279C12.4581 25.3506 11.9796 26.0181 11.7781 26.384C11.6351 26.6459 11.6143 26.7343 11.6143 26.7616L11.6208 26.7824L13.7225 25.8816C13.7225 25.8816 13.6315 25.9908 13.4846 26.15L12.7025 26.9449L12.5094 27.149L11.0877 28.5853L11.061 28.6185L9.97927 29.7175L9.28562 30.424C9.28562 30.424 8.71809 31.0148 8.64983 31.3209C8.58222 31.6218 8.90207 31.8077 8.90207 31.8077H8.89817C9.18746 31.9689 9.42084 32.2184 9.55801 32.5168C9.63342 32.6974 9.67633 32.8937 9.67633 33.105C9.67633 33.5183 9.50665 33.8933 9.22321 34.1643C8.94562 34.4373 8.55427 34.6076 8.12325 34.6076C7.7306 34.6076 7.38215 34.4653 7.10976 34.2378C7.15721 34.3015 7.92562 35.2673 9.33633 34.5166L11.0799 33.246L11.1553 33.1868L12.9574 31.8694C13.3825 32.3712 13.7843 32.9756 14.1477 33.6613C13.077 34.6784 11.2509 36.443 9.42734 38.3727C8.34103 39.5198 7.25668 40.7326 6.33094 41.8777L6.98104 38.8237L7.035 38.5715C7.035 38.5715 7.0324 38.5715 7.0324 38.5761C7.02524 38.5793 7.02134 38.5793 7.01614 38.5839C7.01614 38.5865 7.00769 38.591 7.00769 38.591C7.00119 38.5943 6.99404 38.5943 6.99014 38.6047C6.98689 38.6047 6.98104 38.6073 6.98104 38.6144C6.97389 38.6183 6.96284 38.6229 6.95698 38.6274C6.95308 38.63 6.95048 38.6398 6.93943 38.6417C6.93293 38.6456 6.92318 38.6554 6.91408 38.658C6.90823 38.6671 6.90238 38.671 6.89198 38.6781C6.88482 38.6853 6.87962 38.6931 6.86467 38.6963C6.85492 38.7067 6.84842 38.7165 6.83737 38.7217C6.82827 38.7295 6.81721 38.7418 6.80616 38.7438C6.79771 38.7574 6.78666 38.7691 6.77756 38.773C6.76261 38.7828 6.75285 38.7951 6.7392 38.8042C6.7288 38.8114 6.71905 38.8237 6.70995 38.8341C6.69565 38.8458 6.67809 38.8549 6.66834 38.8712C6.65079 38.8777 6.64429 38.8894 6.62739 38.8965C6.61699 38.9134 6.60008 38.9257 6.58253 38.9407C6.57343 38.9517 6.55523 38.9641 6.54548 38.9771C6.52792 38.9914 6.50777 39.0076 6.49412 39.0258C6.48047 39.0382 6.47136 39.0499 6.45316 39.059C6.44016 39.0791 6.42066 39.0986 6.39595 39.1168C6.3823 39.1279 6.3719 39.137 6.36215 39.15C6.3511 39.161 6.33809 39.1727 6.32379 39.1838C6.32379 39.1883 6.32119 39.1883 6.32119 39.1883C6.30169 39.2065 6.28024 39.2299 6.26008 39.252C6.24253 39.2631 6.22888 39.2813 6.21653 39.2975C6.19182 39.3157 6.17427 39.3365 6.15412 39.356C6.13722 39.3723 6.11966 39.3924 6.10341 39.4067C6.08976 39.4275 6.07221 39.4431 6.06311 39.4561C6.05595 39.4613 6.04685 39.471 6.03905 39.4788C6.03905 39.4814 6.03255 39.4866 6.02475 39.4938C6.0124 39.5068 6.00135 39.5178 5.98769 39.5321C5.97079 39.5523 5.95389 39.5685 5.93699 39.5887C5.93309 39.5958 5.93049 39.6017 5.92333 39.603C5.91618 39.6108 5.91033 39.614 5.90318 39.6218C5.89408 39.6381 5.88238 39.6498 5.86873 39.6615C5.84857 39.6907 5.82842 39.7128 5.80112 39.7362C5.78356 39.7616 5.76276 39.7798 5.74651 39.8058C5.72636 39.8311 5.69905 39.8584 5.67825 39.8818C5.6581 39.9071 5.63924 39.9273 5.61974 39.9526C5.59374 39.9812 5.57358 40.0111 5.54628 40.0397C5.52873 40.0625 5.50792 40.0859 5.48582 40.1132C5.46437 40.1444 5.44031 40.1717 5.41301 40.2081C5.39286 40.2263 5.37596 40.2542 5.3545 40.277C5.32915 40.3153 5.30119 40.3478 5.27389 40.3848C5.25309 40.4121 5.23619 40.4303 5.22253 40.4544C5.18938 40.4986 5.15427 40.5421 5.12047 40.5857C5.11007 40.6032 5.09251 40.6234 5.08341 40.6396C5.03596 40.7053 4.98525 40.7716 4.93974 40.8405L4.93389 40.8482C4.88838 40.9145 4.84093 40.9802 4.79737 41.0471C4.78632 41.0666 4.77202 41.0894 4.75772 41.1102C4.72651 41.1609 4.69011 41.2122 4.65565 41.2662C4.63745 41.2915 4.62445 41.3168 4.60429 41.3422C4.57374 41.3935 4.54253 41.439 4.50873 41.4897C4.49118 41.5209 4.47493 41.5482 4.45867 41.5762C4.43137 41.6275 4.39691 41.6795 4.36376 41.7302C4.34946 41.7614 4.3293 41.7913 4.31305 41.8238C4.28185 41.8751 4.25454 41.9284 4.22009 41.9798C4.20254 42.0071 4.18303 42.0435 4.16548 42.0747C4.13428 42.1345 4.10372 42.1858 4.07252 42.2404C4.05821 42.271 4.03936 42.3054 4.02311 42.3405C3.87944 42.6044 3.74032 42.8773 3.5973 43.1724V43.1776L2.87959 43.2978C3.02326 42.9287 3.16563 42.5933 3.31906 42.2755L2.14889 43.9224L3.31906 43.808C2.31856 46.1068 1.58461 49.1154 1.58461 53.3997L2.53699 52.7973C3.37692 57.5795 7.32039 59.6813 7.32039 59.6813L7.31389 59.6514C9.48585 61.0728 12.1304 62.0672 15.0448 62.4611C15.4492 62.5124 15.7768 62.5423 15.8509 62.5495C15.8535 62.5495 15.8535 62.5495 15.8535 62.5475C15.9062 62.554 15.953 62.5631 16.0037 62.5631C17.5821 62.7009 19.115 62.6444 20.581 62.4299C20.5771 62.4858 20.5739 62.5423 20.5739 62.5989C20.5739 63.5458 21.1004 64.3251 21.7713 64.3895C20.3938 66.7325 19.2776 69.8443 19.2743 69.8586C19.221 70.0016 19.1111 70.2668 19 70.3461C18.6606 70.4228 18.6333 70.4397 18.2576 70.5567L18.2634 70.5521C18.1367 70.4286 17.0484 70.2252 15.94 70.6411C15.9426 70.6463 15.9426 70.6463 15.9491 70.6522C15.3217 70.9271 14.7113 71.4295 14.2881 72.2621C14.7386 71.8981 15.5792 71.3067 16.2637 71.3886C15.4531 71.85 14.0528 72.7313 13.8928 74C13.8928 74 18.7542 70.5898 21.1511 71.2189C21.1511 71.2189 20.802 71.6154 21.6277 73.0881L22.0047 71.7181C22.4364 70.389 20.7715 70.1933 20.0713 70.1647C20.0746 70.155 20.0746 70.1505 20.0746 70.1485C20.0746 70.1485 20.1519 69.9353 20.2878 69.5831C20.7006 68.5185 21.6615 66.1651 22.7133 64.485C22.7322 64.4499 22.7458 64.4122 22.7569 64.3778L22.5599 64.1067C22.5618 64.1067 22.7023 63.9533 22.7777 63.8403C22.9168 63.6199 23.1105 63.2462 23.1138 62.7516C23.1138 62.3636 23.0189 61.8742 22.7426 61.2659L23.3654 60.9773C23.3992 61.0566 23.4323 61.13 23.4655 61.2009C23.4746 61.2282 23.4837 61.2522 23.4915 61.273C23.511 61.3237 23.5311 61.3751 23.548 61.4258C23.5584 61.4485 23.5675 61.4771 23.5766 61.5024C23.5935 61.5577 23.6091 61.609 23.6274 61.6597C23.6313 61.6753 23.641 61.6961 23.6449 61.7143L27.2029 60.64L26.4143 59.9907H26.4091L26.374 59.9556L26.3558 59.942L12.8988 47.6894C12.9027 47.6894 12.9066 47.6959 12.9066 47.6959L12.9027 47.6894C16.644 49.5086 21.0081 51.6235 28.4107 55.0525C35.7035 58.4133 40.3211 60.3709 42.7031 61.3465C42.7232 61.3595 42.7453 61.3679 42.7616 61.3751H42.7655C43.1113 61.5174 43.4084 61.6363 43.6587 61.7384C44.1684 61.9379 44.6462 62.1225 44.6722 62.1342C44.7125 62.1114 44.7606 62.0991 44.8016 62.0776L17.5951 43.4226L34.4085 31.8096ZM15.5792 37.5596L11.5232 40.6442L14.4344 34.243V34.2378C14.8972 35.2192 15.286 36.341 15.5831 37.5596H15.5792ZM30.062 59.6287L30.1634 60.1155H30.1608L34.9013 62.9109L36.1007 63.6076L35.4448 61.9204C39.3557 63.0733 42.5405 63.1377 44.6586 62.14C44.6586 62.14 44.656 62.14 44.656 62.1413C40.9693 63.2306 31.8276 60.1512 30.062 59.6287Z" fill="#DC0D15"/>
<path d="M4.53636 35.0816C4.53636 35.7361 6.01467 35.6496 6.01467 35.6496C6.01467 35.0478 4.89326 34.3238 4.89326 34.3238C4.89326 34.3238 3.87911 34.7527 2.67969 34.3238C2.19927 34.1502 1.69675 34.2068 1.26898 34.3374C0.700802 34.7163 0 35.3948 0 35.3948C2.64588 34.4108 4.53636 35.0816 4.53636 35.0816ZM14.434 34.2432L11.5229 40.6437L15.5789 37.5591C15.2857 36.3405 14.8911 35.2239 14.434 34.2432ZM44.6784 62.1344C44.6784 62.1344 35.5667 58.7164 12.8985 47.689L26.4081 59.9909H26.414C27.6238 59.4885 28.4754 59.1317 30.1605 60.1157L30.061 59.6282C31.8234 60.1508 40.9995 63.2457 44.6784 62.1344ZM22.7416 61.2654C23.0185 61.8737 23.1135 62.3638 23.1135 62.7511C23.1096 63.2457 22.9165 63.6201 22.7773 63.8404C22.7019 63.9535 22.5615 64.1063 22.5596 64.1063L22.9639 64.6606C23.0075 64.6327 23.7973 64.0361 23.7973 62.7511C23.7973 62.2513 23.6777 61.6599 23.3624 60.9768L22.7416 61.2654ZM14.6089 62.7414C15.2519 62.8434 15.8376 62.8974 15.8376 62.8974L15.8675 62.5575C15.8675 62.5575 15.2941 62.5068 14.6648 62.4047L14.6089 62.7414ZM14.1474 33.6615C13.7839 32.9758 13.3822 32.3714 12.957 31.8696L9.336 34.5207C7.87394 35.2928 7.10293 34.236 7.10293 34.236C7.37077 34.4654 7.72767 34.6071 8.12293 34.6071C8.98235 34.6071 9.67275 33.9299 9.67535 33.1051C9.67535 32.8965 9.6331 32.697 9.55443 32.5215C9.42052 32.218 9.18323 31.9684 8.89524 31.8092L8.90174 31.8072C8.90174 31.8072 8.58189 31.622 8.6495 31.3204C8.71776 31.0143 9.28465 30.4235 9.28465 30.4235L9.28139 30.4261L11.0607 28.618L11.0874 28.5855L12.7022 26.9444L13.4843 26.1496C13.6312 25.9903 13.7183 25.8857 13.7183 25.8857L11.6139 26.7826C11.6139 26.7826 11.5736 26.7598 11.7778 26.3835C11.9812 26.0105 12.474 25.3228 12.474 25.3228L8.56759 28.111C8.79317 27.0166 11.2336 23.7396 11.2336 23.7396L8.65535 26.0989C8.48243 25.2767 9.99 22.1525 9.99 22.1525C9.04086 23.0929 8.35761 24.125 8.35761 24.125C8.35761 23.2236 9.04086 21.9341 9.04086 21.9341C5.91001 25.0655 5.04083 28.9839 4.8224 30.4417C4.36863 30.7251 4.64752 30.38 4.43104 30.9006C2.32864 31.4939 1.13571 33.369 0.864626 33.835C2.56982 31.7312 4.71643 31.9411 4.71643 31.9411C4.71643 31.9411 7.27975 36.6765 6.16484 36.2943C5.04083 35.905 5.57911 37.7885 5.57911 37.7885L3.4819 36.8845C3.82775 37.5689 4.5084 39.1807 4.1177 40.8575C3.68603 41.5133 3.25762 42.3127 2.87862 43.298L3.59632 43.1778C3.73674 42.8775 3.87586 42.6039 4.01563 42.342C4.03578 42.3082 4.05724 42.2757 4.07219 42.2425C4.10014 42.1873 4.13135 42.134 4.16515 42.0787C4.18206 42.0462 4.20221 42.0105 4.21976 41.9793C4.24967 41.9286 4.27567 41.8773 4.30882 41.8266C4.32898 41.7908 4.34913 41.7609 4.36343 41.7297C4.39594 41.679 4.42324 41.627 4.45835 41.5796C4.4746 41.5478 4.49085 41.5205 4.5084 41.4951C4.53896 41.4438 4.57276 41.3931 4.60397 41.3437C4.61827 41.3164 4.63322 41.291 4.65467 41.2657C4.68393 41.2143 4.72033 41.1636 4.75674 41.1129C4.77169 41.0889 4.78079 41.0662 4.79705 41.0473C4.8406 40.9797 4.88806 40.9141 4.93357 40.8504C4.93357 40.8478 4.93877 40.8432 4.93877 40.8406C4.98427 40.7711 5.03173 40.7087 5.07724 40.6437C5.09219 40.6281 5.10649 40.6066 5.12014 40.5884C5.15395 40.5417 5.18515 40.5007 5.21831 40.4546C5.23586 40.4299 5.25211 40.4117 5.27291 40.3889C5.29762 40.3525 5.32427 40.3148 5.35158 40.2771C5.37498 40.2544 5.39253 40.2316 5.40878 40.2076C5.43414 40.1751 5.46014 40.1439 5.48549 40.1127C5.50435 40.09 5.5284 40.0672 5.5453 40.0419C5.57261 40.0107 5.59276 39.984 5.61616 39.9554C5.63827 39.9327 5.65517 39.9093 5.67467 39.8865C5.69873 39.8579 5.72148 39.8306 5.74618 39.8072C5.76243 39.7845 5.78324 39.763 5.80079 39.7416C5.82354 39.7123 5.8476 39.6902 5.8645 39.6649C5.8853 39.6467 5.90221 39.6214 5.92236 39.6032C5.94446 39.5804 5.96331 39.5596 5.98737 39.5356C6.00427 39.5122 6.02117 39.4992 6.03807 39.4784C6.06278 39.4556 6.08098 39.4355 6.10308 39.4101C6.11674 39.3971 6.13689 39.3763 6.15379 39.3555C6.17004 39.336 6.1915 39.3152 6.21555 39.297C6.22855 39.2827 6.2422 39.2671 6.25976 39.2515C6.27926 39.2301 6.30136 39.206 6.32022 39.1878C6.33777 39.1768 6.34687 39.1605 6.36117 39.1515C6.39498 39.117 6.42228 39.0884 6.45284 39.0585C6.47104 39.0494 6.48014 39.0377 6.49379 39.026C6.50744 39.0078 6.5276 38.9916 6.5445 38.9766C6.55425 38.9636 6.57245 38.9513 6.5822 38.9402C6.59911 38.9259 6.61666 38.9129 6.62641 38.8967C6.64396 38.8895 6.65046 38.8772 6.66737 38.8713C6.67777 38.8544 6.69467 38.8453 6.70962 38.8336C6.71872 38.8239 6.72848 38.8109 6.73888 38.8037C6.75253 38.7946 6.76228 38.7829 6.77658 38.7725C6.78568 38.7693 6.79673 38.7569 6.80584 38.7433C6.81689 38.742 6.82794 38.729 6.83704 38.7218C6.84809 38.716 6.85394 38.7062 6.86434 38.6965C6.87865 38.6926 6.8845 38.6854 6.89165 38.6783C6.9014 38.6705 6.9079 38.6672 6.91375 38.6581C6.9222 38.6549 6.9326 38.6452 6.93911 38.6419C6.94951 38.64 6.95276 38.6296 6.95601 38.627C6.96251 38.6224 6.97356 38.6179 6.98071 38.614C6.98071 38.6068 6.98656 38.6042 6.98981 38.6042C6.99371 38.5945 7.00086 38.5945 7.00737 38.5906C7.00737 38.5906 7.01517 38.586 7.01517 38.5834C7.02102 38.5789 7.02427 38.5789 7.03207 38.5763C7.03207 38.5717 7.03467 38.5717 7.03467 38.5717L6.98071 38.8239L6.33062 41.8773C8.79577 38.8239 12.4357 35.2811 14.1474 33.6615ZM6.9053 33.3437L7.18744 33.2507C7.19394 33.2891 7.2115 33.3255 7.22515 33.3554C7.37792 33.7278 7.73027 33.9552 8.10538 33.9552C8.22499 33.9552 8.34071 33.937 8.45187 33.8876C8.6391 33.8116 8.78862 33.6764 8.88809 33.5185L8.59555 33.3437C8.6326 33.2631 8.6495 33.1721 8.6495 33.0778C8.6495 32.9686 8.6222 32.8666 8.58189 32.7717L9.22289 32.5533C9.45497 33.2351 9.12862 33.9643 8.48633 34.1847C7.84794 34.403 7.13933 34.0319 6.9053 33.3437Z" fill="black"/>
<path d="M66.2149 38.4712C65.7826 38.3555 65.1364 38.2918 64.2959 38.2918H62.4704V48.6056L62.6641 48.4704L64.1652 47.4123L64.2185 47.3733V44.4551H64.7919C65.8509 44.4551 66.7103 44.1724 67.3416 43.6239C67.978 43.0656 68.2985 42.3077 68.2985 41.3653C68.2985 40.4827 67.9975 39.7438 67.4053 39.1614C67.0646 38.8261 66.6668 38.5934 66.2149 38.4712ZM64.695 42.9687H64.2139V39.8068H64.7535C66.1324 39.8068 66.8267 40.3177 66.8267 41.3367C66.8267 42.4247 66.1129 42.9687 64.695 42.9687ZM75.9241 44.2075C76.5274 44.0372 77.0273 43.7109 77.4102 43.2306C77.8328 42.7062 78.0428 42.0647 78.0428 41.3367C78.0428 40.4041 77.7021 39.6365 77.0319 39.0646C76.4299 38.555 75.443 38.2918 74.1025 38.2918H72.2231V48.6056L72.4123 48.4704L73.9186 47.4123L73.9719 47.3733V44.4207H74.0544L76.8622 48.4418L76.9298 48.5432L77.0319 48.4704L78.2365 47.6008L78.3385 47.528L78.2657 47.4266L75.9241 44.2075ZM73.9719 42.9687V42.866V39.9537V39.8068H74.5108C75.8903 39.8068 76.5852 40.3177 76.5852 41.3367C76.5852 42.4247 75.8714 42.9687 74.4523 42.9687H73.9719ZM49.7155 38.5979C49.1227 38.3945 48.3113 38.2918 47.3056 38.2918H45.0966V48.4892H47.2822C48.2964 48.4892 49.0928 48.3976 49.657 48.2078C50.2545 48.0187 50.8409 47.6788 51.3902 47.1985C52.4784 46.2314 53.0369 44.9549 53.0369 43.3905C53.0369 41.8417 52.5025 40.5646 51.4539 39.6086C50.9338 39.1367 50.3513 38.7975 49.7155 38.5979ZM50.2057 45.9409C49.8612 46.2502 49.4679 46.4842 49.0342 46.6246C48.6084 46.7656 48.0546 46.8339 47.398 46.8339H46.8447V39.9537H47.398C48.637 39.9537 49.5888 40.2494 50.2148 40.8278C50.9195 41.483 51.2693 42.3415 51.2693 43.3905C51.2693 44.435 50.915 45.289 50.2057 45.9409ZM38.7283 39.7633C39.3732 39.7633 40.0103 39.9478 40.6318 40.3125L40.7397 40.3748L40.7976 40.2683L41.5263 39.0113L41.5894 38.9047L41.4828 38.841C40.6318 38.351 39.7379 38.1033 38.8343 38.1033C37.1642 38.1033 35.7853 38.7286 34.7361 39.9673C33.8812 40.9825 33.4482 42.1479 33.4482 43.4399C33.4482 44.8763 33.9683 46.13 34.9838 47.1491C36.0129 48.1597 37.2662 48.6738 38.7186 48.6738C39.6794 48.6738 40.6084 48.421 41.4828 47.9264L41.5445 47.8874V47.7854L41.5309 47.7574L40.7976 46.4888L40.7338 46.3783L40.6227 46.4511C40.4192 46.5817 40.2183 46.6883 40.0343 46.7656C39.6794 46.9314 39.2432 47.0133 38.7322 47.0133C37.7525 47.0133 36.9119 46.6636 36.2313 45.9734C35.5558 45.2851 35.2113 44.4252 35.2113 43.4198C35.2113 42.4007 35.5558 41.5259 36.2313 40.8278C36.9074 40.1175 37.7467 39.7633 38.7283 39.7633ZM153.679 39.9537L153.712 39.9186L155.096 38.5056L155.306 38.2918H149.394V48.4892H153.712L153.747 48.4555L155.102 47.0425L155.301 46.8339H151.142V43.6674H152.425L152.459 43.6291L153.863 42.2213L154.071 42.0075H151.142V39.9537H153.679ZM123.763 39.9537H126.05V48.6056L126.245 48.4704L127.746 47.4123L127.8 47.3733V39.9537H130.083V38.2918H123.763V39.9537ZM86.7852 38.1072C85.3225 38.1072 84.0503 38.6278 83.0114 39.6521C81.9622 40.6764 81.4323 41.9204 81.4323 43.347C81.4323 44.9686 82.0148 46.3042 83.1622 47.3096C84.2011 48.2137 85.3953 48.6738 86.7072 48.6738C88.1842 48.6738 89.4669 48.1545 90.5103 47.1354C91.555 46.1202 92.0841 44.8672 92.0841 43.4061C92.0841 41.9581 91.5595 40.6953 90.52 39.6658C89.4864 38.6317 88.2323 38.1072 86.7852 38.1072ZM89.2816 45.9701C88.5866 46.6636 87.7272 47.0133 86.7215 47.0133C85.8036 47.0133 84.9728 46.6681 84.2694 45.9838C83.5549 45.3046 83.1954 44.4252 83.1954 43.3626C83.1954 42.3571 83.5451 41.4966 84.2297 40.8122C84.9149 40.1175 85.7698 39.7633 86.7657 39.7633C87.7662 39.7633 88.6159 40.1175 89.292 40.8122C89.9765 41.5025 90.3211 42.3708 90.3211 43.3905C90.3211 44.396 89.9713 45.2656 89.2816 45.9701ZM165.739 39.6086C165.219 39.1367 164.632 38.7975 163.995 38.5979C163.402 38.3945 162.596 38.2918 161.586 38.2918H159.376V48.4892H161.561C162.577 48.4892 163.379 48.3976 163.942 48.2078C164.539 48.0187 165.122 47.6788 165.671 47.1985C166.764 46.2314 167.318 44.9549 167.318 43.3905C167.318 41.8417 166.788 40.5646 165.739 39.6086ZM164.49 45.9409C164.141 46.2502 163.747 46.4842 163.32 46.6246C162.888 46.7656 162.339 46.8339 161.678 46.8339H161.125V39.9537H161.678C162.922 39.9537 163.869 40.2494 164.501 40.8278C165.2 41.483 165.553 42.3415 165.553 43.3905C165.553 44.435 165.2 45.289 164.49 45.9409ZM142.673 44.2075C143.274 44.0372 143.774 43.7109 144.159 43.2306C144.581 42.7062 144.79 42.0647 144.79 41.3367C144.79 40.4041 144.45 39.6365 143.78 39.0646C143.172 38.555 142.191 38.2918 140.85 38.2918H138.966V48.6056L139.161 48.4704L140.666 47.4123L140.72 47.3733V44.4207H140.802L143.604 48.4418L143.678 48.5432L143.78 48.4704L144.984 47.6008L145.08 47.528L145.013 47.4266L142.673 44.2075ZM140.72 42.9687V39.8068H141.253C142.638 39.8068 143.328 40.3177 143.328 41.3367C143.328 42.4247 142.619 42.9687 141.195 42.9687H140.72ZM118.983 38.3308L115.322 42.0842V38.18L115.127 38.3211L113.626 39.3752L113.572 39.4136V48.6056L113.772 48.4704L115.272 47.4123L115.322 47.3733V44.2991L115.501 44.1237L118.997 48.4457L119.066 48.5328L119.163 48.4704L120.45 47.6008L120.562 47.5234L120.474 47.4156L116.75 42.9291L121.169 38.5056L121.378 38.2918H119.023L118.983 38.3308ZM97.4708 39.3798L97.4169 39.4188V44.8522C97.4169 45.6744 97.3297 46.2502 97.1601 46.5706C97.0092 46.8722 96.7421 47.0133 96.3442 47.0133C96.053 47.0133 95.737 46.9021 95.397 46.674L95.2852 46.6012L95.2221 46.7117L94.4791 47.994L94.4206 48.1006L94.5226 48.1643C95.0856 48.4996 95.6974 48.6738 96.3442 48.6738C97.2088 48.6738 97.9122 48.358 98.4369 47.747C98.7047 47.437 98.8945 47.0522 99.0109 46.6057C99.1175 46.2177 99.1754 45.6438 99.1754 44.8574V38.18L98.9764 38.3211L97.4708 39.3798ZM108.22 39.9537L108.258 39.9186L109.643 38.5056L109.847 38.2918H103.941V48.4892H108.254L108.293 48.4555L109.643 47.0425L109.843 46.8339H105.69V43.6674H106.967L107.001 43.6291L108.404 42.2213L108.613 42.0075H105.69V39.9537H108.22Z" fill="black"/>
<path d="M170.267 41.6694C169.283 41.6694 168.483 40.8694 168.483 39.8867C168.483 38.8942 169.283 38.1039 170.267 38.1039C171.259 38.1039 172.05 38.8942 172.05 39.8867C172.05 40.8694 171.259 41.6694 170.267 41.6694ZM170.267 38.3717C169.425 38.3717 168.752 39.0372 168.752 39.8867C168.752 40.7186 169.425 41.3997 170.267 41.3997C171.108 41.3997 171.78 40.7186 171.78 39.8867C171.78 39.0372 171.108 38.3717 170.267 38.3717ZM170.755 40.9116L170.225 40.105H169.871V40.9116H169.585V38.8689H170.418C170.763 38.8689 171.082 39.1119 171.082 39.4915C171.082 39.9452 170.678 40.0959 170.562 40.0959L171.108 40.9116H170.755ZM170.418 39.1217H169.871V39.8438H170.418C170.594 39.8438 170.787 39.7021 170.787 39.4915C170.787 39.264 170.594 39.1217 170.418 39.1217Z" fill="black"/>
</g>
<defs>
<clipPath id="clip0_20_801">
<rect width="172.05" height="74" fill="white"/>
</clipPath>
</defs>
</svg>
