<svg width="28" height="28" viewBox="0 0 28 28" fill="none" xmlns="http://www.w3.org/2000/svg">
<path d="M16.6665 0.666748H3.33317C1.85317 0.666748 0.666504 1.86675 0.666504 3.33341V16.6667H3.33317V3.33341H16.6665V0.666748ZM21.9998 6.00008H8.6665C7.1865 6.00008 5.99984 7.20008 5.99984 8.66675V22.0001H8.6665V8.66675H21.9998V6.00008ZM24.6665 11.3334H13.9998C12.5198 11.3334 11.3332 12.5334 11.3332 14.0001V24.6667C11.3332 26.1334 12.5198 27.3334 13.9998 27.3334H24.6665C26.1332 27.3334 27.3332 26.1334 27.3332 24.6667V14.0001C27.3332 12.5334 26.1332 11.3334 24.6665 11.3334Z" fill="black"/>
</svg>
