<svg width="58" height="33" viewBox="0 0 58 33" fill="none" xmlns="http://www.w3.org/2000/svg">
<path d="M0.515625 0.866046H17.1671C19.0022 0.866046 20.6267 1.22916 22.0406 1.9554C23.4546 2.65138 24.5526 3.66508 25.3348 4.99652C26.117 6.29769 26.5081 7.79556 26.5081 9.49011V13.7114C26.5081 15.4664 26.102 17.0248 25.2897 18.3865C24.4774 19.7179 23.3343 20.7619 21.8601 21.5184C20.4161 22.2446 18.7314 22.6078 16.806 22.6078H6.74299V32.6389H0.515625V0.866046ZM16.7158 17.161C17.7687 17.161 18.6261 16.8281 19.288 16.1624C19.9498 15.4664 20.2807 14.5586 20.2807 13.439V9.76245C20.2807 8.70335 19.9799 7.87121 19.3782 7.26601C18.8066 6.63055 18.0395 6.31282 17.0768 6.31282H6.74299V17.161H16.7158Z" fill="#FBF503"/>
<path d="M40.6931 33.002C38.3767 33.002 36.331 32.5027 34.556 31.5042C32.8111 30.5056 31.4574 29.0985 30.4947 27.2829C29.532 25.4371 29.0507 23.3189 29.0507 20.9283V12.5766C29.0507 10.1861 29.532 8.08302 30.4947 6.26743C31.4875 4.42158 32.8713 2.99937 34.6463 2.00079C36.4513 1.00222 38.5271 0.50293 40.8736 0.50293H45.657C47.9133 0.50293 49.8988 0.987087 51.6136 1.9554C53.3284 2.92372 54.652 4.28541 55.5846 6.04048C56.5473 7.7653 57.0287 9.77758 57.0287 12.0773H50.8916C50.8916 10.2617 50.4102 8.80926 49.4475 7.71991C48.4849 6.60029 47.2213 6.04048 45.657 6.04048H40.8736C39.1889 6.04048 37.8352 6.67594 36.8123 7.94686C35.7894 9.18751 35.278 10.8215 35.278 12.849V20.656C35.278 22.6834 35.7744 24.3326 36.7672 25.6035C37.7599 26.8441 39.0686 27.4645 40.6931 27.4645H45.5667C47.1612 27.4645 48.4548 26.8441 49.4475 25.6035C50.4704 24.3628 50.9818 22.7288 50.9818 20.7014H57.1189C57.1189 23.1524 56.6376 25.316 55.6749 27.1921C54.7122 29.038 53.3584 30.4753 51.6136 31.5042C49.8687 32.5027 47.8531 33.002 45.5667 33.002H40.6931Z" fill="#FBF503"/>
</svg>
