<svg width="25" height="29" viewBox="0 0 25 29" fill="none" xmlns="http://www.w3.org/2000/svg">
<path d="M20.6578 21.3834H19.1129L19.1201 20.4793C19.1201 20.0774 19.4475 19.7487 19.8478 19.7487H19.9463C20.3472 19.7487 20.6756 20.0774 20.6756 20.4793L20.6578 21.3834ZM14.8639 19.4459C14.472 19.4459 14.1515 19.7112 14.1515 20.0361V24.4335C14.1515 24.7577 14.472 25.0225 14.8639 25.0225C15.2573 25.0225 15.5781 24.7577 15.5781 24.4335V20.0361C15.5781 19.7109 15.2573 19.4459 14.8639 19.4459ZM24.2729 16.9861V25.3515C24.2729 27.3581 22.546 29 20.4357 29H4.65584C2.54461 29 0.818359 27.3581 0.818359 25.3515V16.9861C0.818359 14.9795 2.54461 13.3373 4.65584 13.3373H20.4357C22.546 13.3373 24.2729 14.9795 24.2729 16.9861ZM5.70848 26.2598L5.70723 17.4478L7.66333 17.4484V16.1428L2.44892 16.1349V17.4185L4.07667 17.4232V26.2598H5.70848ZM11.5721 18.7604H9.94124V23.4659C9.94124 24.1467 9.98221 24.487 9.93874 24.6071C9.80614 24.9721 9.21008 25.3594 8.97773 24.6465C8.93832 24.5217 8.97304 24.1451 8.97241 23.4984L8.96584 18.7604H7.34404L7.34904 23.4237C7.35029 24.1385 7.3331 24.6717 7.35467 24.9141C7.39439 25.3417 7.38032 25.8406 7.77404 26.1252C8.5077 26.6581 9.91403 26.0458 10.2659 25.2844L10.2627 26.256L11.5724 26.2576V18.7604H11.5721ZM16.7893 24.1489L16.7859 20.2325C16.7847 18.7399 15.6767 17.8458 14.1724 19.0535L14.179 16.1418L12.5497 16.1443L12.5419 26.1945L13.8813 26.1747L14.0033 25.5488C15.7157 27.1318 16.7918 26.0473 16.7893 24.1489ZM21.8934 23.6298L20.6703 23.6364C20.6697 23.6853 20.6681 23.7417 20.6675 23.8032V24.4908C20.6675 24.8586 20.3657 25.1583 19.9992 25.1583H19.7596C19.3925 25.1583 19.091 24.8586 19.091 24.4908V24.4145V23.6582V22.6822H21.8912V21.6201C21.8912 20.8439 21.8715 20.068 21.8077 19.6242C21.6075 18.2206 19.6524 17.9977 18.6648 18.7163C18.3545 18.9407 18.1178 19.241 17.9802 19.6447C17.841 20.0484 17.7722 20.6 17.7722 21.3005V23.6355C17.7726 27.5175 22.4516 26.9689 21.8934 23.6298ZM15.6207 10.9519C15.7048 11.158 15.8355 11.325 16.0128 11.4511C16.188 11.5753 16.4122 11.6377 16.6802 11.6377C16.9154 11.6377 17.1236 11.5737 17.305 11.4417C17.4858 11.3102 17.6381 11.1139 17.7622 10.852L17.7316 11.4968H19.5495V3.70594H18.1184V9.76946C18.1184 10.0978 17.8501 10.3667 17.5221 10.3667C17.1959 10.3667 16.9266 10.0978 16.9266 9.76946V3.70594H15.433V8.96078C15.433 9.63016 15.4449 10.0764 15.4646 10.3027C15.4856 10.5274 15.5366 10.743 15.6207 10.9519ZM10.1117 6.55176C10.1117 5.80391 10.1736 5.21993 10.2965 4.79889C10.4203 4.37942 10.6427 4.04221 10.9648 3.78788C11.286 3.53229 11.6972 3.40434 12.1973 3.40434C12.6179 3.40434 12.9781 3.48754 13.2793 3.65048C13.5817 3.81436 13.8147 4.02708 13.9767 4.2896C14.1415 4.55307 14.2534 4.82379 14.3132 5.1008C14.3742 5.3816 14.4042 5.80517 14.4042 6.37654V8.34686C14.4042 9.06951 14.3754 9.60117 14.3197 9.93869C14.2644 10.2772 14.1455 10.5911 13.9617 10.8854C13.78 11.1766 13.5457 11.3944 13.2618 11.5334C12.9747 11.6736 12.6463 11.7423 12.2754 11.7423C11.8611 11.7423 11.5121 11.6846 11.2244 11.5642C10.9357 11.4445 10.7127 11.2639 10.5539 11.0241C10.3934 10.7839 10.2806 10.4915 10.2124 10.1505C10.1439 9.8098 10.1114 9.29736 10.1114 8.61443V6.55176H10.1117ZM11.5355 9.64655C11.5355 10.0878 11.8614 10.448 12.2582 10.448C12.6554 10.448 12.9797 10.0878 12.9797 9.64655V5.49916C12.9797 5.05857 12.6554 4.69836 12.2582 4.69836C11.8614 4.69836 11.5355 5.05857 11.5355 5.49916V9.64655ZM6.50437 11.7407H8.21936L8.22124 5.76546L10.2477 0.646768H8.37197L7.29463 4.44876L6.20196 0.636368H4.34561L6.50155 5.7683L6.50437 11.7407Z" fill="black"/>
</svg>
